@startuml





/' Objects '/

namespace Communications_protocol {
	enum Commands {
        IS_DEAD
        IS_ALIVE
        CONNECTED
        DISCONNECTED
        SLEEP
        WAKE_UP
        VERSION
        ALIVE_INTERVAL
        HAS_KEYS
        KEYSCAN_INTERVAL
        BRIGHTNESS
        MODE_LED
        LED
        PALETTE_COLORS
        LAYER_KEYMAP_COLORS
        LAYER_UNDERGLOW_COLORS
        GET_OPEN_LED
        GET_SHORT_LED
        BATTERY_LEVEL
        BATTERY_STATUS
        BATTERY_SAVING
        RF_ADDRESS
	}

	enum Devices {
		UNKNOWN
        KEYSCANNER_DEFY_LEFT
        KEYSCANNER_DEFY_RIGHT
        RF_DEFY_LEFT
        RF_DEFY_RIGHT
        NEURON_DEFY
        RF_NEURON_DEFY
        WIRED_NEURON_DEFY
        BLE_NEURON_2_DEFY
        BLE_DEFY_LEFT
        BLE_DEFY_RIGHT
	}

	class Header {
		+command : Commands
		+device : Devices
        +has_more_packets : bool
        +size : uint8_t
        +crc : uint8_t
	}

	class Packet {
		+header : Header
		+data : uint8_t [ MAX_TRANSFER_SIZE -sizeof(Header)]
	}
}





/' Inheritance relationships '/




/' Aggregation relationships '/

Communications_protocol.Header *-- Communications_protocol.Commands


Communications_protocol.Header *-- Communications_protocol.Devices


Communications_protocol.Packet *-- Communications_protocol.Header









@enduml
